<svg width="37" height="37" viewBox="0 0 37 37" fill="none" xmlns="http://www.w3.org/2000/svg">
<path d="M36.5 16.9773V33.6198C36.5 34.3836 36.1839 35.1162 35.6213 35.6564C35.0587 36.1965 34.2956 36.5 33.5 36.5H26C25.2043 36.5 24.4413 36.1965 23.8786 35.6564C23.316 35.1162 23 34.3836 23 33.6198V26.4191C23 26.0372 22.8419 25.6709 22.5606 25.4008C22.2793 25.1307 21.8978 24.979 21.5 24.979H15.5C15.1021 24.979 14.7206 25.1307 14.4393 25.4008C14.158 25.6709 14 26.0372 14 26.4191V33.6198C14 34.3836 13.6839 35.1162 13.1213 35.6564C12.5587 36.1965 11.7956 36.5 11 36.5H3.49997C2.70432 36.5 1.94126 36.1965 1.37865 35.6564C0.81604 35.1162 0.49997 34.3836 0.49997 33.6198V16.9773C0.499906 16.5787 0.58603 16.1844 0.752891 15.8194C0.919752 15.4544 1.16372 15.1266 1.46934 14.8568L16.4693 1.2692L16.49 1.2494C17.0422 0.767201 17.7619 0.5 18.5084 0.5C19.2549 0.5 19.9746 0.767201 20.5268 1.2494C20.5332 1.25645 20.5401 1.26306 20.5475 1.2692L35.5475 14.8568C35.85 15.128 36.0909 15.4564 36.2548 15.8214C36.4187 16.1863 36.5022 16.5799 36.5 16.9773Z" fill="#008AFC"/>
</svg>
