<svg width="37" height="37" viewBox="0 0 37 37" fill="none" xmlns="http://www.w3.org/2000/svg">
<path d="M0.837662 35.7711C0.839021 35.8681 0.859483 35.9639 0.897879 36.0531C0.936275 36.1422 0.991852 36.2229 1.06144 36.2905C1.13102 36.3582 1.21326 36.4115 1.30343 36.4473C1.39361 36.4832 1.48998 36.5009 1.58702 36.4996H36.0772C36.1743 36.5011 36.2708 36.4834 36.3611 36.4476C36.4514 36.4118 36.5337 36.3585 36.6034 36.2909C36.6731 36.2232 36.7288 36.1425 36.7672 36.0533C36.8057 35.9641 36.8262 35.8682 36.8275 35.7711V34.9014C36.8446 34.639 36.8796 33.3316 36.0175 31.885C35.4738 30.9727 34.6846 30.1855 33.6719 29.5432C32.447 28.7663 30.8886 28.2046 29.0034 27.8664C28.0464 27.7317 27.0971 27.547 26.1594 27.3131C23.666 26.6765 23.4481 26.1128 23.4462 26.1071C23.4318 26.0515 23.4108 25.9977 23.3837 25.947C23.3628 25.8428 23.3126 25.4468 23.4092 24.3867C23.6537 21.6934 25.0984 20.1019 26.2589 18.8229C26.6246 18.4203 26.9703 18.0385 27.2365 17.6653C28.3857 16.0548 28.4918 14.2217 28.4965 14.108C28.5009 13.9065 28.473 13.7057 28.4141 13.513C28.3004 13.1625 28.0892 12.9446 27.9338 12.7836C27.897 12.7467 27.8613 12.7088 27.8267 12.6699C27.8154 12.6566 27.7851 12.6206 27.8125 12.4397C27.9054 11.8568 27.9696 11.2697 28.0048 10.6805C28.0579 9.73122 28.0986 8.31209 27.8533 6.9299C27.8172 6.6659 27.7628 6.40474 27.6903 6.14834C27.4317 5.1972 27.0168 4.38437 26.4398 3.71365C26.3403 3.6047 23.9265 1.06106 16.9189 0.54002C15.9498 0.468022 14.992 0.506863 14.0485 0.555178C13.7694 0.561381 13.4917 0.595658 13.2195 0.657492C12.4958 0.84412 12.3025 1.30264 12.2523 1.55937C12.168 1.98568 12.3158 2.31536 12.4133 2.53514C12.4276 2.5664 12.4456 2.60525 12.4143 2.70756C12.2523 2.95955 11.9956 3.18692 11.735 3.40197C11.6593 3.46544 9.90286 4.9812 9.80623 6.96022C9.54571 8.46556 9.56466 10.8103 9.87255 12.4312C9.89149 12.5212 9.91707 12.6538 9.87444 12.7438C9.54287 13.0403 9.16772 13.3766 9.16867 14.144C9.17246 14.2217 9.27951 16.0538 10.4286 17.6653C10.6939 18.0385 11.0397 18.4194 11.4044 18.822L11.4063 18.8229C12.5668 20.1019 14.0115 21.6934 14.2559 24.3858C14.3516 25.4468 14.3014 25.8419 14.2815 25.947C14.254 25.9977 14.2327 26.0514 14.218 26.1071C14.2171 26.1128 14.0002 26.6746 11.5181 27.3103C10.0857 27.6769 8.67604 27.8645 8.63341 27.8692C6.80124 28.179 5.25232 28.7275 4.02929 29.4996C3.02036 30.1372 2.22932 30.9272 1.67986 31.8462C0.800716 33.3146 0.824399 34.6522 0.836715 34.8966V35.7711H0.837662Z" fill="#9CA5C2"/>
</svg>
