<svg width="37" height="37" viewBox="0 0 37 37" fill="none" xmlns="http://www.w3.org/2000/svg">
<path d="M18.4974 10.2418C16.8646 10.2418 15.2685 10.726 13.9108 11.6331C12.5532 12.5403 11.4951 13.8296 10.8702 15.3381C10.2454 16.8467 10.0819 18.5066 10.4004 20.108C10.719 21.7094 11.5053 23.1805 12.6598 24.335C13.8144 25.4896 15.2854 26.2759 16.8868 26.5944C18.4883 26.9129 20.1482 26.7495 21.6567 26.1246C23.1652 25.4998 24.4546 24.4416 25.3617 23.084C26.2689 21.7264 26.753 20.1302 26.753 18.4974C26.7508 16.3086 25.8802 14.2101 24.3325 12.6623C22.7848 11.1146 20.6862 10.2441 18.4974 10.2418ZM18.4974 24.0012C17.4089 24.0012 16.3448 23.6784 15.4397 23.0736C14.5346 22.4689 13.8292 21.6093 13.4126 20.6036C12.9961 19.5979 12.8871 18.4913 13.0994 17.4237C13.3118 16.3561 13.836 15.3754 14.6057 14.6057C15.3754 13.836 16.3561 13.3118 17.4237 13.0994C18.4913 12.8871 19.5979 12.9961 20.6036 13.4126C21.6093 13.8292 22.4689 14.5346 23.0736 15.4397C23.6784 16.3448 24.0012 17.4089 24.0012 18.4974C24.0012 19.9571 23.4213 21.357 22.3892 22.3892C21.357 23.4213 19.9571 24.0012 18.4974 24.0012ZM33.6327 18.8689C33.6396 18.6213 33.6396 18.3736 33.6327 18.1259L36.1988 14.92C36.3334 14.7517 36.4265 14.5541 36.4707 14.3432C36.5149 14.1323 36.509 13.9139 36.4534 13.7057C36.0327 12.1244 35.4034 10.6062 34.5821 9.19094C34.4746 9.00573 34.3253 8.84819 34.1461 8.73084C33.967 8.6135 33.7629 8.53959 33.5502 8.51501L29.4705 8.06095C29.3008 7.88208 29.1288 7.71009 28.9545 7.54497L28.473 3.45501C28.4482 3.2421 28.374 3.03793 28.2564 2.85876C28.1387 2.6796 27.9808 2.5304 27.7953 2.42306C26.3795 1.60325 24.8614 0.974599 23.2805 0.553504C23.0722 0.498117 22.8538 0.492452 22.6429 0.536965C22.4319 0.581479 22.2344 0.674925 22.0663 0.809771L18.8689 3.36213C18.6213 3.36213 18.3736 3.36213 18.1259 3.36213L14.92 0.801172C14.7517 0.66662 14.5541 0.573485 14.3432 0.529272C14.1323 0.485058 13.9139 0.491002 13.7057 0.546624C12.1247 0.968051 10.6065 1.59729 9.19094 2.4179C9.00573 2.52544 8.84819 2.67472 8.73084 2.85388C8.6135 3.03303 8.53959 3.2371 8.51501 3.44985L8.06095 7.53638C7.88208 7.70722 7.71009 7.87921 7.54497 8.05235L3.45501 8.52189C3.2421 8.54666 3.03793 8.62083 2.85876 8.73848C2.6796 8.85613 2.5304 9.01401 2.42306 9.19954C1.60325 10.6153 0.974599 12.1334 0.553504 13.7143C0.498117 13.9227 0.492452 14.1411 0.536965 14.352C0.581479 14.5629 0.674925 14.7604 0.809771 14.9286L3.36213 18.1259C3.36213 18.3736 3.36213 18.6213 3.36213 18.8689L0.801172 22.0749C0.66662 22.2432 0.573485 22.4408 0.529272 22.6517C0.485058 22.8626 0.491002 23.0809 0.546624 23.2891C0.967298 24.8704 1.59658 26.3887 2.4179 27.8039C2.52544 27.9891 2.67472 28.1467 2.85388 28.264C3.03303 28.3813 3.2371 28.4552 3.44985 28.4798L7.5295 28.9339C7.70034 29.1128 7.87233 29.2848 8.04547 29.4499L8.52189 33.5398C8.54666 33.7527 8.62083 33.9569 8.73848 34.1361C8.85613 34.3152 9.01401 34.4644 9.19954 34.5718C10.6153 35.3916 12.1334 36.0202 13.7143 36.4413C13.9227 36.4967 14.1411 36.5024 14.352 36.4579C14.5629 36.4134 14.7604 36.3199 14.9286 36.1851L18.1259 33.6327C18.3736 33.6396 18.6213 33.6396 18.8689 33.6327L22.0749 36.1988C22.2432 36.3334 22.4408 36.4265 22.6517 36.4707C22.8626 36.5149 23.0809 36.509 23.2891 36.4534C24.8704 36.0327 26.3887 35.4034 27.8039 34.5821C27.9891 34.4746 28.1467 34.3253 28.264 34.1461C28.3813 33.967 28.4552 33.7629 28.4798 33.5502L28.9339 29.4705C29.1128 29.3008 29.2848 29.1288 29.4499 28.9545L33.5398 28.473C33.7527 28.4482 33.9569 28.374 34.1361 28.2564C34.3152 28.1387 34.4644 27.9808 34.5718 27.7953C35.3916 26.3795 36.0202 24.8614 36.4413 23.2805C36.4967 23.0722 36.5024 22.8538 36.4579 22.6429C36.4134 22.4319 36.3199 22.2344 36.1851 22.0663L33.6327 18.8689ZM30.8636 17.751C30.8929 18.2482 30.8929 18.7467 30.8636 19.2439C30.8431 19.5843 30.9498 19.9202 31.1629 20.1864L33.6035 23.2358C33.3234 24.1258 32.9648 24.9892 32.532 25.8157L28.6449 26.256C28.3064 26.2936 27.9939 26.4553 27.7678 26.71C27.4367 27.0824 27.0841 27.435 26.7118 27.7661C26.4571 27.9922 26.2953 28.3047 26.2577 28.6432L25.826 32.5268C24.9996 32.9599 24.1362 33.3185 23.2461 33.5983L20.195 31.1577C19.9508 30.9627 19.6475 30.8565 19.335 30.8568H19.2525C18.7553 30.886 18.2568 30.886 17.7596 30.8568C17.4192 30.8363 17.0833 30.9429 16.8171 31.156L13.759 33.5983C12.869 33.3183 12.0057 32.9597 11.1792 32.5268L10.7389 28.6449C10.7013 28.3064 10.5395 27.9939 10.2848 27.7678C9.91246 27.4367 9.55984 27.0841 9.22878 26.7118C9.00266 26.4571 8.69012 26.2953 8.35162 26.2577L4.46804 25.8243C4.03495 24.9979 3.67636 24.1345 3.39653 23.2444L5.83709 20.1933C6.0502 19.927 6.15685 19.5911 6.13636 19.2507C6.10712 18.7535 6.10712 18.2551 6.13636 17.7579C6.15685 17.4175 6.0502 17.0816 5.83709 16.8153L3.39653 13.759C3.67658 12.869 4.03516 12.0057 4.46804 11.1792L8.3499 10.7389C8.6884 10.7013 9.00094 10.5395 9.22706 10.2848C9.55812 9.91246 9.91074 9.55984 10.2831 9.22878C10.5388 9.00252 10.7012 8.68926 10.7389 8.3499L11.1706 4.46804C11.997 4.03495 12.8604 3.67636 13.7504 3.39653L16.8016 5.83709C17.0678 6.0502 17.4037 6.15685 17.7441 6.13636C18.2413 6.10712 18.7398 6.10712 19.237 6.13636C19.5774 6.15685 19.9133 6.0502 20.1795 5.83709L23.2358 3.39653C24.1258 3.67658 24.9892 4.03516 25.8157 4.46804L26.256 8.3499C26.2936 8.6884 26.4553 9.00094 26.71 9.22706C27.0824 9.55812 27.435 9.91074 27.7661 10.2831C27.9922 10.5378 28.3047 10.6996 28.6432 10.7371L32.5268 11.1688C32.9599 11.9953 33.3185 12.8586 33.5983 13.7487L31.1577 16.7999C30.9426 17.0683 30.8358 17.4077 30.8585 17.751H30.8636Z" fill="#9CA5C2"/>
</svg>
