<svg width="37" height="29" viewBox="0 0 37 29" fill="none" xmlns="http://www.w3.org/2000/svg">
<path fill-rule="evenodd" clip-rule="evenodd" d="M18.1667 0.0999985C19.7057 0.0999985 21.2843 0.139599 22.8143 0.204399L24.6215 0.290798L26.3513 0.393399L27.9713 0.503198L29.4509 0.618399C31.0566 0.741298 32.5675 1.4265 33.7178 2.55347C34.8682 3.68044 35.5843 5.17697 35.7401 6.7798L35.8121 7.5448L35.9471 9.1828C36.0731 10.8802 36.1667 12.7306 36.1667 14.5C36.1667 16.2694 36.0731 18.1198 35.9471 19.8172L35.8121 21.4552C35.7887 21.718 35.7653 21.9718 35.7401 22.2202C35.5842 23.8233 34.8679 25.3201 33.7172 26.4471C32.5664 27.5741 31.0551 28.2591 29.4491 28.3816L27.9731 28.495L26.3531 28.6066L24.6215 28.7092L22.8143 28.7956C21.266 28.8629 19.7164 28.8977 18.1667 28.9C16.6169 28.8977 15.0674 28.8629 13.5191 28.7956L11.7119 28.7092L9.98209 28.6066L8.36209 28.495L6.88249 28.3816C5.2768 28.2587 3.76588 27.5735 2.61554 26.4465C1.4652 25.3196 0.749121 23.823 0.593287 22.2202L0.521287 21.4552L0.386287 19.8172C0.248655 18.048 0.175406 16.2745 0.166687 14.5C0.166687 12.7306 0.260287 10.8802 0.386287 9.1828L0.521287 7.5448C0.544687 7.282 0.568087 7.0282 0.593287 6.7798C0.74906 5.17725 1.46488 3.68095 2.61485 2.55402C3.76483 1.42709 5.27532 0.741703 6.88069 0.618399L8.35849 0.503198L9.97849 0.393399L11.7101 0.290798L13.5173 0.204399C15.0662 0.137138 16.6163 0.10233 18.1667 0.0999985ZM14.5667 10.135V18.865C14.5667 19.6966 15.4667 20.215 16.1867 19.801L23.7467 15.436C23.9112 15.3413 24.0478 15.2049 24.1428 15.0406C24.2379 14.8763 24.2879 14.6898 24.2879 14.5C24.2879 14.3102 24.2379 14.1237 24.1428 13.9594C24.0478 13.7951 23.9112 13.6587 23.7467 13.564L16.1867 9.2008C16.0225 9.10598 15.8362 9.05608 15.6465 9.05611C15.4569 9.05614 15.2706 9.1061 15.1064 9.20097C14.9422 9.29584 14.8059 9.43228 14.7111 9.59656C14.6164 9.76083 14.5666 9.94716 14.5667 10.1368V10.135Z" fill="#9CA5C2"/>
</svg>
